<svg width="32" height="32" viewBox="0 0 32 32" fill="none" xmlns="http://www.w3.org/2000/svg">
<path d="M7 26C5.29867 26 3.87333 25.4253 2.724 24.276C1.57467 23.1267 1 21.7013 1 20C1 18.3333 1.58578 16.908 2.75733 15.724C3.92889 14.54 5.34311 13.9484 7 13.9493C8.52356 13.9493 9.85556 14.4649 10.996 15.496C12.1373 16.5262 12.7951 17.8053 12.9693 19.3333H15.3227L12.4613 11.3333H10.3333V10H15.6667V11.3333H13.8933L14.8213 13.9493H22.708L20.4667 7.79467C20.4151 7.64089 20.3298 7.52533 20.2107 7.448C20.0907 7.37156 19.9538 7.33333 19.8 7.33333H17V6H19.8C20.224 6 20.6124 6.11733 20.9653 6.352C21.3182 6.58578 21.5693 6.90933 21.7187 7.32267L24.1387 13.9333H25.6667C27.3236 13.9333 28.7378 14.5191 29.9093 15.6907C31.0809 16.8622 31.6667 18.2764 31.6667 19.9333C31.6667 21.5956 31.0822 23.0133 29.9133 24.1867C28.7436 25.3618 27.328 25.9493 25.6667 25.9493C24.1351 25.9493 22.8107 25.4449 21.6933 24.436C20.576 23.4271 19.9107 22.1707 19.6973 20.6667H12.9693C12.7951 22.2 12.1293 23.4724 10.972 24.484C9.81467 25.4956 8.49067 26.0009 7 26ZM7 24.6667C8.11644 24.6667 9.10089 24.3142 9.95333 23.6093C10.8049 22.9036 11.3556 21.9227 11.6053 20.6667H7.66667V19.3333H11.6053C11.3556 18.0711 10.8044 17.0889 9.952 16.3867C9.10044 15.6844 8.11644 15.3333 7 15.3333C5.67822 15.3333 4.57022 15.7809 3.676 16.676C2.78178 17.5711 2.33422 18.6791 2.33333 20C2.33333 21.2818 2.78089 22.38 3.676 23.2947C4.57111 24.2093 5.67911 24.6667 7 24.6667ZM16.8053 19.3333H19.6973C19.7747 18.72 20.0013 17.9987 20.3773 17.1693C20.7551 16.34 21.3044 15.7107 22.0253 15.2813H15.292L16.8053 19.3333ZM25.6667 24.6667C26.9884 24.6667 28.0964 24.2093 28.9907 23.2947C29.8858 22.38 30.3333 21.2818 30.3333 20C30.3333 18.6782 29.8858 17.5702 28.9907 16.676C28.0956 15.7818 26.9876 15.3342 25.6667 15.3333C25.4684 15.3333 25.2836 15.3378 25.112 15.3467C24.9404 15.3556 24.7733 15.3853 24.6107 15.436L25.9947 19.1227L24.744 19.5947L23.4253 15.908C22.6564 16.3373 22.06 16.9271 21.636 17.6773C21.212 18.4276 21 19.2018 21 20C21 21.2818 21.4476 22.38 22.3427 23.2947C23.2378 24.2093 24.3458 24.6667 25.6667 24.6667Z" fill="white"/>
</svg>
