<svg width="32" height="32" viewBox="0 0 32 32" fill="none" xmlns="http://www.w3.org/2000/svg">
<path fill-rule="evenodd" clip-rule="evenodd" d="M18.5 2C18.6989 2 18.8896 2.07907 19.0303 2.21973L24.2803 7.46973C24.4209 7.61038 24.5 7.80109 24.5 8V13.75C24.5 14.1642 24.1642 14.5 23.75 14.5H22.5V29H26.75C27.1642 29 27.5 29.3358 27.5 29.75C27.5 30.1642 27.1642 30.5 26.75 30.5H6.75C6.33579 30.5 6 30.1642 6 29.75C6 29.3358 6.33579 29 6.75 29H11V14.5H9.75C9.33579 14.5 9 14.1642 9 13.75V2.75C9 2.33579 9.33579 2 9.75 2H18.5ZM12.5 29H17V14.5H12.5V29ZM18.5 29H21V14.5H18.5V29ZM10.5 13H23V8.31055L18.1895 3.5H10.5V13Z" fill="white"/>
</svg>
