<svg width="97" height="42" viewBox="0 0 97 42" fill="none" xmlns="http://www.w3.org/2000/svg">
<path d="M29.1706 12.9731L13.6998 42L0 13.0202L7.7354 9.94021L14.1663 24.3602L21.7613 9.33333L29.1706 12.9731Z" fill="black"/>
<path d="M74.688 11.8064L73.7559 30.5202L84.3339 28.8401L86.1982 37.2399L64.8555 41.1136L64.9018 40.5531L66.2533 40.6002L66.7198 11.7601H66.2071L66.2533 10.8737L74.688 11.8064Z" fill="black"/>
<path fill-rule="evenodd" clip-rule="evenodd" d="M40.2705 12.9731C44.4643 11.9931 49.3574 11.2931 53.1785 12.5531C58.8636 14.4197 59.376 20.3931 54.1569 24.2197L53.5979 24.7332L54.2502 24.92C62.8708 26.6933 61.4266 38.5931 52.8061 40.0867C48.6122 40.7867 44.3244 40.4135 40.0839 39.8535L42.228 29.9133L36.4494 30.3797L36.2628 29.0732L38.5928 28.9335L38.2204 20.3931L35.0046 20.58L34.865 19.6002L40.6436 19.0867L40.2705 12.9731ZM49.8701 28.7466C47.8198 28.28 45.5362 28.9337 44.1848 29.5404L44.9304 32.8998C46.1419 33.2265 47.8199 33.4598 49.9634 32.8064C52.1998 32.1529 52.3862 29.3067 49.8701 28.7466ZM47.8663 18.9933C45.7694 18.7133 43.8588 19.4136 42.4609 20.1136L43.2527 23.7997C44.6507 23.9864 46.1422 24.0798 48.2857 23.4731C50.4757 22.8196 50.8485 19.4133 47.8663 18.9933Z" fill="black"/>
<path d="M39.6736 18.2466L29.4224 19.1801L29.6553 21.8401L37.3436 21.3737L37.6235 28.0463L30.0277 28.5135L30.2613 31.8737L41.0722 30.9402L39.3474 39.0135L22.9915 40.1801L22.3855 27.7197L30.4471 12.5531L28.7231 11.713L39.2079 10.8737L39.6736 18.2466Z" fill="black"/>
<path d="M95.6014 18.2466L85.3503 19.1801L85.5831 21.8401L93.2715 21.3737L93.5513 28.0463L85.9555 28.5135L86.1891 31.8737L97 30.9402L95.2753 39.0135L78.9194 40.1801L78.8724 39.5269L87.3071 37.9865L85.0241 27.7668L78.3604 28.8401L77.5216 12.2735L95.1357 10.8737L95.6014 18.2466Z" fill="black"/>
<path d="M65.7785 12.6465L65.3121 39.6203L57.0177 39.3864C62.2367 35.6997 62.5166 27.5333 56.6453 24.7332L56.6916 23.1465C59.301 20.1133 59.3478 16.3802 57.0648 13.8602L57.111 12.3199L65.7785 12.6465Z" fill="black"/>
<path d="M32.6746 2.7997L27.5953 10.7332L24.0079 9.70703L25.7781 0L32.6746 2.7997Z" fill="black"/>
</svg>
